<svg xmlns="http://www.w3.org/2000/svg" xmlns:xlink="http://www.w3.org/1999/xlink" viewBox="0 0 891.68 618.29"><defs><style>.a212f8ce-2cde-4d61-af7c-5eb9c099153a{fill:#93b4f1;}.bc07913b-bbfd-45d4-b7fd-bd12c19ce3a6{fill:#062892;}.aa1a45e2-7b48-4836-83dd-01878ec8573e{fill:#ddddf8;}.bd1abc29-447e-4630-b48e-6f9b7cabf3c4{fill:#6aa0ef;}.bf9d5120-8fed-4f89-a65b-270554e04b94{fill:#2f5dec;}.f545aa42-ec62-4c18-8a80-543d8331dd89{fill:#fb5d87;}.bb960a56-da0b-4e5e-a8d0-7d8fd4c955e6,.e0c3a25d-f44d-4d66-ac72-f78c041a95bb,.fa2052f0-540c-411b-9f8c-6b8c99cda5e9{fill:#fff;}.ea0c9f17-74df-4450-af6e-e7d029700640,.ed35e748-cd56-49dc-903c-c74a409c4ee7,.fa2052f0-540c-411b-9f8c-6b8c99cda5e9{stroke:#d3e0f4;}.a75d7605-225b-407d-b98f-edd4d03bd92b,.abab542a-763e-4212-8628-82aa6b0e4b66,.aead6443-f4ff-4560-80b8-29c49c579e63,.b02fbf21-cf3d-4b16-bf71-ac30121aafad,.b87398fb-47cb-4cec-a974-4e413ba3c1f4,.e1e1288f-8579-43de-959c-bc7abec50874,.e43986e3-d270-4313-a764-06ac8ba756fa,.e4a25b2d-5b5d-4f34-b24d-f2d3969c0a69,.ea0c9f17-74df-4450-af6e-e7d029700640,.ed35e748-cd56-49dc-903c-c74a409c4ee7,.fa2052f0-540c-411b-9f8c-6b8c99cda5e9,.fabf1182-09aa-49ef-adf2-5568d060b7a3{stroke-miterlimit:10;}.ea0c9f17-74df-4450-af6e-e7d029700640{fill:url(#a1ba5ad6-1658-451a-84c5-b55007197bc4);}.a3f7b7e3-f8bf-4d76-8b42-6285b1556901,.a75d7605-225b-407d-b98f-edd4d03bd92b,.abab542a-763e-4212-8628-82aa6b0e4b66,.aead6443-f4ff-4560-80b8-29c49c579e63,.b02fbf21-cf3d-4b16-bf71-ac30121aafad,.b8023bdf-e1b8-4612-8922-a3514e593e2a,.b87398fb-47cb-4cec-a974-4e413ba3c1f4,.b93fc37d-6a2c-4b27-b27e-30172f29b672,.e1e1288f-8579-43de-959c-bc7abec50874,.e43986e3-d270-4313-a764-06ac8ba756fa,.e4a25b2d-5b5d-4f34-b24d-f2d3969c0a69,.ecb656a6-5ee5-4970-9b68-23f5a26704f2,.fabf1182-09aa-49ef-adf2-5568d060b7a3{fill:none;}.ed35e748-cd56-49dc-903c-c74a409c4ee7{fill:url(#fa95ad7a-0a3c-47f3-a042-1b4ab9b740f7);}.b29789e6-c85f-4cb7-888b-cc19f9dcea35{fill:#00a7e1;}.ff75a9ec-b030-4bb0-a6ae-5c4c6da05794{fill:#d6ccff;}.f3274c04-ac58-4ad7-8d7c-ccb0de7a3ffe{fill:#febf3a;}.b40473cd-ec15-4b91-921a-0ef3512972fc{fill:#3e9abf;}.a7609882-d7fb-4d01-aa94-806d61c46ab6{fill:#6cc0ea;}.aa87576d-ff7d-4db7-99c3-25925c56d3b8{fill:#fff3e0;}.bc584bcd-e87d-49a5-9ff5-c6921484fdda{fill:#ff7278;}.f607bfe5-1182-4879-989e-089102c696d3{fill:#b5d9e8;}.a75d7605-225b-407d-b98f-edd4d03bd92b,.abab542a-763e-4212-8628-82aa6b0e4b66,.b02fbf21-cf3d-4b16-bf71-ac30121aafad,.b87398fb-47cb-4cec-a974-4e413ba3c1f4,.e4a25b2d-5b5d-4f34-b24d-f2d3969c0a69{stroke:#fff;}.e4a25b2d-5b5d-4f34-b24d-f2d3969c0a69{stroke-width:4.45px;}.e6621f88-b39b-452f-9889-abdb42189382{fill:#0055d1;}.a3bc1063-10f1-455f-b300-e5cc613f199b{fill:#0084ff;}.a52a6ce4-89ae-4ecd-a372-aa825cfb4bbf{fill:url(#b7632e95-f327-4f6a-8e1a-6ff33c1d8d95);}.a3f7b7e3-f8bf-4d76-8b42-6285b1556901,.a75d7605-225b-407d-b98f-edd4d03bd92b,.b02fbf21-cf3d-4b16-bf71-ac30121aafad,.b8023bdf-e1b8-4612-8922-a3514e593e2a,.b87398fb-47cb-4cec-a974-4e413ba3c1f4,.e1e1288f-8579-43de-959c-bc7abec50874,.e43986e3-d270-4313-a764-06ac8ba756fa,.ecb656a6-5ee5-4970-9b68-23f5a26704f2,.fabf1182-09aa-49ef-adf2-5568d060b7a3{stroke-linecap:round;}.a75d7605-225b-407d-b98f-edd4d03bd92b,.b02fbf21-cf3d-4b16-bf71-ac30121aafad,.e1e1288f-8579-43de-959c-bc7abec50874,.fabf1182-09aa-49ef-adf2-5568d060b7a3{stroke-width:3.41px;}.a3a2c25f-aadc-440b-8914-e9db25b36fe0,.a75d7605-225b-407d-b98f-edd4d03bd92b,.e0c3a25d-f44d-4d66-ac72-f78c041a95bb,.e1e1288f-8579-43de-959c-bc7abec50874{opacity:0.2;}.abab542a-763e-4212-8628-82aa6b0e4b66,.aead6443-f4ff-4560-80b8-29c49c579e63,.b87398fb-47cb-4cec-a974-4e413ba3c1f4,.e43986e3-d270-4313-a764-06ac8ba756fa{stroke-width:1.54px;}.b87398fb-47cb-4cec-a974-4e413ba3c1f4,.e43986e3-d270-4313-a764-06ac8ba756fa{opacity:0.4;}.bd7915bc-eb63-4fe8-9d2b-86511f4a3e69{fill:#e7e8e8;}.aead6443-f4ff-4560-80b8-29c49c579e63,.e1e1288f-8579-43de-959c-bc7abec50874,.e43986e3-d270-4313-a764-06ac8ba756fa,.fabf1182-09aa-49ef-adf2-5568d060b7a3{stroke:#986af6;}.a3a2c25f-aadc-440b-8914-e9db25b36fe0{fill:#986af6;}.a4f763c4-ff70-4869-b7ae-57e7c0387b0e{fill:#85606a;}.ffd5cf88-ef14-4ac5-9013-2df62f6d4758{fill:#ffc6a9;}.f903c280-d22c-422d-b887-d9e17dfdf9a8{fill:#3d2550;}.b05518c6-29f2-4a38-b2a2-342e6622d54e{fill:#3e4373;}.bb533590-6014-4202-8f38-2646c28ed26d{fill:#31365f;}.f102788c-847d-4dd5-b8ac-5a706b5944a8{fill:#edeef8;}.f4a41d66-219c-49b6-9d8e-3e90b9d12061{fill:#e1e2ec;}.a7a78997-5898-46b8-bddb-c1183037dd22{fill:#98686d;}.b3ce838d-73bf-41e8-8c7f-4d7d2271d7aa{fill:#3c5a99;}.e5b7d6ba-5614-4fbd-834a-3dface2d1e3e{fill:#cadcf9;}.b9e4bf75-9152-4d0a-a1dc-6781edcf73d6{fill:#ab7a6c;}.ae759b20-3658-4a4d-90d8-c18416e679dd{fill:#aaa9b0;}.edca76d7-3aa7-4bab-84cc-df9a17ed8999{fill:#453929;}.bf995556-f259-4005-9cda-3809718167b3{fill:#e9efff;}.a5562240-86c2-4be5-8b56-7dee6ab083d5{fill:#6569d0;}.afce9697-67d0-477e-825a-b73180a1ad87{fill:#595bad;}.e9f30e62-fff2-4013-9a0b-ac9915aaeb81{fill:#fdfdfe;}.e102b49d-84c0-4e2a-abfb-f94016826fe4{fill:#3b3b47;}.b377fd34-1790-4023-8929-8a3ba8331481{fill:#936358;}.e0e6dc85-8934-497b-8d84-1a432dba5858{fill:#2b2c2e;}.a3f7b7e3-f8bf-4d76-8b42-6285b1556901,.ecb656a6-5ee5-4970-9b68-23f5a26704f2{stroke:#5c8cfd;}.a3f7b7e3-f8bf-4d76-8b42-6285b1556901,.b8023bdf-e1b8-4612-8922-a3514e593e2a,.ecb656a6-5ee5-4970-9b68-23f5a26704f2{stroke-linejoin:round;}.a3f7b7e3-f8bf-4d76-8b42-6285b1556901{stroke-width:2.58px;}.ecb656a6-5ee5-4970-9b68-23f5a26704f2{stroke-width:1.61px;}.f6a47e62-0ea9-49d0-a956-a9a396af5501{fill:#020604;}.b8023bdf-e1b8-4612-8922-a3514e593e2a{stroke:#d9cae5;stroke-width:1.41px;}.bec8e780-37bb-44f2-bcb3-e9d1db234d8a{fill:#44ddb3;}.b1589416-16ba-4bc1-8a37-951dce284bd9{fill:#fafafa;}.a3961121-2e81-4c73-aa9e-516a790bd438{fill:#f3f5f9;}.a7fd8f6a-fd8b-447a-9fb2-85eb58c8f8d4{fill:#b7b7e5;}.eee17470-117d-4896-9e84-19376a3a9b8f{fill:#837ddd;}.e4cb92d0-d18c-4859-9750-ac01eb2a0daa{fill:#3c3c95;}.b5824c39-6018-443b-88c5-cd3b6614d385{fill:#d8ac9e;}.b1210446-e582-4031-b7aa-c10f2ed6f9f6{fill:#6766cd;}.f17f17e9-a301-45b8-ab95-ab445d40d102{fill:#ffccb8;}.e3b11e3b-aba9-4b49-b000-b09d64dee9c6{fill:#4d4bab;}.afd213b3-f13a-4d1e-9583-e0bbb3e5f195{fill:#35d8b9;}.b3ba6794-8f32-4d32-8626-3b83236a8dd7{fill:#f9d7d8;}.bbfa0d71-862e-422e-b37e-b8a64c6908f2{fill:#e2a58d;}.b877d603-b89f-464b-9d0a-b3694ef374c4{fill:#acdaf5;}.b7266ead-1fc0-41fa-92df-238ec32305b0{fill:#b8e986;}.ef07507b-93b8-41bc-a559-7d9b2806ad44{fill:#89c130;}.fe957145-043a-47e0-90be-baead60d1939{fill:url(#a516b9fa-d0e1-42ef-9358-cf98ad8678bc);}.bf0e2b4e-4aa9-4a3d-8d05-9a28b8f977a8{fill:#e5ecf9;}.b3c5b601-571f-41a7-8989-39820e203306{fill:#d3dcea;}.fec42131-8c4a-4c5e-9c3e-489f42250e20{fill:url(#e2f6c5f3-e66a-4e74-8163-2ce8232e62c0);}.a9fa24da-160b-4bcf-8a9c-1e4a9dd6f4fe{fill:#b2bdd3;}.f643228c-3c1e-4b06-a957-11ceeb3ef348{fill:#00aced;}.beb585b0-71e1-4b91-ab9e-28aa22e17756{fill:#5887da;}.acdda7f5-a3cf-4e67-a034-d65804a205cb{fill:#dae1ea;}</style><linearGradient id="a1ba5ad6-1658-451a-84c5-b55007197bc4" x1="456.19" y1="145.31" x2="456.19" y2="566.91" gradientUnits="userSpaceOnUse"><stop offset="0" stop-color="#fff"/><stop offset="1" stop-color="#d9e1ed"/></linearGradient><linearGradient id="fa95ad7a-0a3c-47f3-a042-1b4ab9b740f7" x1="456.77" y1="538.99" x2="456.77" y2="174.66" gradientUnits="userSpaceOnUse"><stop offset="0" stop-color="#5887da"/><stop offset="1" stop-color="#7c63e3"/></linearGradient><linearGradient id="b7632e95-f327-4f6a-8e1a-6ff33c1d8d95" x1="114.52" y1="429.56" x2="242.87" y2="429.56" gradientUnits="userSpaceOnUse"><stop offset="0" stop-color="#9769f6"/><stop offset="0.65" stop-color="#7d7ef4"/><stop offset="1" stop-color="#6e8af3"/></linearGradient><linearGradient id="a516b9fa-d0e1-42ef-9358-cf98ad8678bc" x1="10834.09" y1="132.81" x2="10863.31" y2="132.81" gradientTransform="matrix(-1, 0, 0, 1, 11033.47, 0)" gradientUnits="userSpaceOnUse"><stop offset="0" stop-color="#d3dcea"/><stop offset="1" stop-color="#fff"/></linearGradient><linearGradient id="e2f6c5f3-e66a-4e74-8163-2ce8232e62c0" x1="10682.24" y1="125.2" x2="10749.86" y2="125.2" xlink:href="#a516b9fa-d0e1-42ef-9358-cf98ad8678bc"/></defs><title>Front</title><g id="b5bbdd2a-a377-4910-9953-ac2a136b5cfa" data-name="Layer 2"><g id="fa002c6d-23de-40b5-a868-ed1fa708ca69" data-name="Layer 2"><path class="a212f8ce-2cde-4d61-af7c-5eb9c099153a" d="M88.13,584.81c14.66-3.17,30.42-9.47,39.14-16.07,11.31-8.55,6.5-14.37-10.75-13s-40.39,9.44-51.7,18l23.31,11.07"/><path class="bc07913b-bbfd-45d4-b7fd-bd12c19ce3a6" d="M120.15,484.9C114,496.58,105.37,499.7,96,507.72c-8.26,7.06-13.84,18.7-18,28.63,2.12-9.6,3.68-21.51,8.6-30.16C93.38,494.34,107.77,488.47,120.15,484.9Z"/><path class="aa1a45e2-7b48-4836-83dd-01878ec8573e" d="M109.78,491.57a48.91,48.91,0,0,0-16.24,12.85,64.76,64.76,0,0,0-10.3,18,133,133,0,0,0-5.66,20C76.07,549.23,75,556.12,73.8,563c0,0,0,.07-.08.06a.07.07,0,0,1-.06-.07,170.12,170.12,0,0,1,2.55-20.84,103.21,103.21,0,0,1,6-20.17A65.58,65.58,0,0,1,93,504a49.46,49.46,0,0,1,16.72-12.53.07.07,0,0,1,.09,0A.09.09,0,0,1,109.78,491.57Z"/><path class="bc07913b-bbfd-45d4-b7fd-bd12c19ce3a6" d="M63,478.62c1.11,10.53,6.54,15.41,11.1,24.16,4,7.72,4.67,18,4.75,26.63,1.31-7.76,3.71-17.06,2.65-24.95C80,493.64,71.09,485,63,478.62Z"/><path class="aa1a45e2-7b48-4836-83dd-01878ec8573e" d="M66.73,486.78a39.71,39.71,0,0,1,9.37,13.84,52.76,52.76,0,0,1,3.45,16.46,82.3,82.3,0,0,1-.74,16.82,136.6,136.6,0,0,1-3.51,16.42.06.06,0,0,1-.07,0,0,0,0,0,1,0-.06c.88-5.53,1.88-11,2.52-16.55a107.59,107.59,0,0,0,1-16.63,52,52,0,0,0-3.08-16.29,39.3,39.3,0,0,0-8.93-14,.06.06,0,1,1,.08-.08Z"/><path class="aa1a45e2-7b48-4836-83dd-01878ec8573e" d="M59.94,518.43a28.72,28.72,0,0,1,7.83,9.3,38.48,38.48,0,0,1,3.72,11.66,55.64,55.64,0,0,1,.7,12.22,79,79,0,0,1-1.67,12.09.06.06,0,0,1-.08,0,.07.07,0,0,1-.06-.07c.11-4.06.36-8.09.41-12.12a87.51,87.51,0,0,0-.4-12A37.52,37.52,0,0,0,67.14,528a28.38,28.38,0,0,0-7.29-9.5.08.08,0,0,1,0-.1A.06.06,0,0,1,59.94,518.43Z"/><path class="bd1abc29-447e-4630-b48e-6f9b7cabf3c4" d="M91.14,440.63C99,448.85,102,458,99.38,469.85c-2,9.23-17.3,29.34-15.64,37.88C79.45,485.57,95.81,462.88,91.14,440.63Z"/><path class="aa1a45e2-7b48-4836-83dd-01878ec8573e" d="M93.77,448.93A8.41,8.41,0,0,1,95,451.47a14.39,14.39,0,0,1,.6,2.77,23.3,23.3,0,0,1,0,5.66,43.56,43.56,0,0,1-1,5.56c-.44,1.83-1,3.65-1.51,5.44-1.13,3.6-2.39,7.13-3.52,10.7a104.65,104.65,0,0,0-2.83,10.84c-1.44,7.35-2.52,14.79-3.88,22.16s-2.68,14.78-4.27,22.13a.07.07,0,0,1-.09,0s-.06,0-.06-.08c.76-7.48,1.86-14.91,3-22.34s2.58-14.8,4.18-22.16a101.61,101.61,0,0,1,3.07-10.89c1.2-3.57,2.54-7.08,3.72-10.63.61-1.78,1.16-3.56,1.65-5.37a42.59,42.59,0,0,0,1.17-5.47,23.08,23.08,0,0,0,.17-5.57,15.05,15.05,0,0,0-.52-2.74,8.09,8.09,0,0,0-1.18-2.5h0a.07.07,0,0,1,0-.1A.08.08,0,0,1,93.77,448.93Z"/><path class="bf9d5120-8fed-4f89-a65b-270554e04b94" d="M0,388.23c9.32,24.86,25.58,33.29,42.15,51.67,14.62,16.21,22.7,40.81,28.33,61.66-1.73-19.67-1.75-43.77-9.3-62.26C50.83,414,23.71,398.55,0,388.23Z"/><path class="aa1a45e2-7b48-4836-83dd-01878ec8573e" d="M19.07,404a99,99,0,0,1,16.56,13,100,100,0,0,1,13.46,16.26c7.79,11.79,13.16,25,16.82,38.66a206.86,206.86,0,0,1,6.7,41.69c.4,7,.58,14.07.49,21.09,0,3.52-.12,7-.24,10.53s-.31,7-.57,10.52a.13.13,0,0,1-.15.13.14.14,0,0,1-.13-.13l-.42-10.51c-.13-3.51-.27-7-.44-10.5-.35-7-.73-14-1.33-20.93-1.19-13.89-2.74-27.79-6.08-41.33S55.37,445.78,47.91,434a98.32,98.32,0,0,0-29-29.8.14.14,0,0,1,.15-.23Z"/><path class="bf9d5120-8fed-4f89-a65b-270554e04b94" d="M115.43,390.56c-4.93,20.67-17,29-28.34,45.21-10,14.33-14,34.66-16.37,51.77-.58-15.79-3-34.93,1.2-50.36C77.62,416,97.63,401.11,115.43,390.56Z"/><path class="aa1a45e2-7b48-4836-83dd-01878ec8573e" d="M106,406a78.75,78.75,0,0,0-21.38,25.49,104.19,104.19,0,0,0-10.36,31.63c-1.86,11-2.28,22.18-2.41,33.34s.39,22.37.73,33.59a.11.11,0,0,1-.11.12.12.12,0,0,1-.12-.1,273.42,273.42,0,0,1-2.74-33.6,165.44,165.44,0,0,1,2.89-33.67A105.56,105.56,0,0,1,83.61,431a79.32,79.32,0,0,1,22.23-25.13.1.1,0,0,1,.15,0A.11.11,0,0,1,106,406Z"/><path class="aa1a45e2-7b48-4836-83dd-01878ec8573e" d="M111.29,470.81a56.79,56.79,0,0,0-17,17,75.15,75.15,0,0,0-9.45,22.06c-2.06,7.79-3,15.81-3.91,23.82s-1.48,16.1-2.32,24.22a.15.15,0,0,1-.16.13.13.13,0,0,1-.12-.13c-.37-4.07-.54-8.15-.57-12.23s.1-8.17.38-12.26a111.88,111.88,0,0,1,4.55-24.15,76.74,76.74,0,0,1,10.44-22.24,57.69,57.69,0,0,1,18-16.48.14.14,0,0,1,.19.05A.14.14,0,0,1,111.29,470.81Z"/><path class="bd1abc29-447e-4630-b48e-6f9b7cabf3c4" d="M69.22,307.64c-17.77,14.34-26.11,31.82-24,56,1.67,18.91,26.81,62.88,21.3,79.46C80.84,400.12,54.16,350.73,69.22,307.64Z"/><path class="aa1a45e2-7b48-4836-83dd-01878ec8573e" d="M62,323.7a16.7,16.7,0,0,0-3,4.69,28.72,28.72,0,0,0-1.75,5.31,46.74,46.74,0,0,0-1.11,11.13A87.63,87.63,0,0,0,57.11,356c.5,3.72,1.14,7.42,1.88,11.11,1.44,7.37,3.19,14.7,4.66,22.12a204.42,204.42,0,0,1,3.28,22.47c1.26,15.07,2.19,30.12,2.58,45.19.17,7.54.33,15.08.33,22.62v11.31c-.07,3.77-.08,7.54-.21,11.31a.15.15,0,0,1-.15.15.15.15,0,0,1-.15-.14c-.32-3.76-.56-7.52-.84-11.28l-.71-11.29c-.47-7.52-.84-15-1.23-22.57l-.5-11.28-.42-11.29c-.26-7.52-.55-15.05-1-22.54a204.83,204.83,0,0,0-2.82-22.31c-1.31-7.39-2.92-14.76-4.22-22.2-.65-3.73-1.2-7.47-1.6-11.23a87.59,87.59,0,0,1-.64-11.34,47.62,47.62,0,0,1,1.42-11.28,29.21,29.21,0,0,1,1.93-5.35,16.72,16.72,0,0,1,3.19-4.72.14.14,0,0,1,.21,0,.17.17,0,0,1,0,.21Z"/><path class="bc07913b-bbfd-45d4-b7fd-bd12c19ce3a6" d="M34.9,516.09c5.71,7.6,12.14,8.86,19.68,13.5,6.65,4.1,11.9,11.74,15.93,18.33-2.57-6.58-5-14.86-9.46-20.45C55,519.81,44.08,517.25,34.9,516.09Z"/><path class="aa1a45e2-7b48-4836-83dd-01878ec8573e" d="M43,519.57a35.73,35.73,0,0,1,13.25,7A47.27,47.27,0,0,1,66,538.2a74.43,74.43,0,0,1,6.49,13.64,120.29,120.29,0,0,1,4.13,14.5s0,.06,0,.06a0,0,0,0,1-.06,0c-1.62-4.75-3.14-9.53-5-14.18a94.74,94.74,0,0,0-6.24-13.58A46.69,46.69,0,0,0,56,527a35.2,35.2,0,0,0-13-7.32.07.07,0,0,1,0-.07A.06.06,0,0,1,43,519.57Z"/><path class="f545aa42-ec62-4c18-8a80-543d8331dd89" d="M74.55,548.54H96.26A1.36,1.36,0,0,1,97.62,550c-.24,2.75-1.08,8.41-3.89,9.24a1.31,1.31,0,0,0-.88,1.06l-4.09,23.5A1.38,1.38,0,0,1,87.6,585a104.89,104.89,0,0,1-13,.52A105.26,105.26,0,0,1,61.49,585a1.36,1.36,0,0,1-1.15-1.12l-4.1-23.5a1.31,1.31,0,0,0-.88-1.06c-2.81-.83-3.65-6.49-3.89-9.24a1.37,1.37,0,0,1,1.36-1.49Z"/><g id="b57f47bb-1c62-4ed3-b2fb-74366a1ac45e" data-name="screen"><g id="a7b19eba-9d2a-495c-8b0c-174652155e3e" data-name="path-12"><rect class="fa2052f0-540c-411b-9f8c-6b8c99cda5e9" x="133.6" y="145.31" width="645.17" height="421.6" rx="19.93"/></g><rect class="fa2052f0-540c-411b-9f8c-6b8c99cda5e9" x="133.6" y="145.31" width="645.17" height="421.6" rx="19.93"/><rect class="ea0c9f17-74df-4450-af6e-e7d029700640" x="133.6" y="145.31" width="645.17" height="421.6" rx="19.93"/></g><polygon class="b93fc37d-6a2c-4b27-b27e-30172f29b672" points="748.7 318.62 748.7 174.66 165.39 174.66 165.39 538.69 165.39 538.99 165.39 538.99 165.39 538.99 748.7 538.99 748.7 318.62 748.7 318.62"/><rect class="ed35e748-cd56-49dc-903c-c74a409c4ee7" x="164.84" y="174.66" width="583.86" height="364.33"/><g id="fb392439-6b6a-458f-913d-48701c99deb0" data-name="fba5c890-1208-4b14-aa54-2dc37ac58210"><path class="b29789e6-c85f-4cb7-888b-cc19f9dcea35" d="M505.72,405.94a6.11,6.11,0,0,1-6,4.14h-9.44c-3.43,0-6.22-2.43-6.22-5.44s2.79-5.45,6.22-5.45h9.44a6.44,6.44,0,0,1,5.21,2.49c3.09-.32,7.77,4.56,11.45,3.7a74.6,74.6,0,0,0,5.84-5.25,72.49,72.49,0,0,0,17.64-28.51l-3-.16c-4.18-.74-7.21-4-7.21-7.71V332.87c0-4.34,4-7.87,9-7.87h.95a72.83,72.83,0,0,0-137.64,0c4.54.39,8.1,3.75,8.1,7.83v30.88c0,4.15-3.69,7.56-8.35,7.85q.79,2.38,1.77,4.74A72.18,72.18,0,0,0,419,399.81c.69.7,1.4,1.39,2.11,2.05l2.62,2.44-3.54,19.13,18.67-9.27,2.78,1.21a72.15,72.15,0,0,0,29,6.06h.1a72.19,72.19,0,0,0,39.93-11.91C509.08,407.62,507.46,405.75,505.72,405.94ZM496,311.16a11.37,11.37,0,1,1-11.37,11.36A11.37,11.37,0,0,1,496,311.16Zm-51.8,0a11.37,11.37,0,1,1-11.37,11.36,11.36,11.36,0,0,1,11.37-11.36Zm25.71,82.6c-27.16,0-49.25-20.38-49.25-45.43,0-2.08,2.28-3.78,4.55-3.78a3.92,3.92,0,0,1,4.06,3.78c0,20.87,18,37.5,40.63,37.5s40.69-16.63,40.69-37.5a3.94,3.94,0,0,1,4.07-3.78c2.25,0,4.46,1.7,4.46,3.78C519.08,373.38,497,393.76,469.87,393.76Z"/><path class="bb960a56-da0b-4e5e-a8d0-7d8fd4c955e6" d="M548.38,325h-2.1q-1.12-3.58-2.6-7.08a79.21,79.21,0,0,0-145.87,0q-1.49,3.49-2.61,7.08h-4c-4.95,0-9,3.53-9,7.87v30.88c0,4.35,4,7.87,9,7.87H395c.74,2.41,1.58,4.8,2.55,7.15a78.6,78.6,0,0,0,16.92,25.54c.75.76,1.52,1.51,2.3,2.23l0,0-5.21,28.28L439,421.24l0,0,0,0a78.39,78.39,0,0,0,31.58,6.59h.11a78.88,78.88,0,0,0,56-23.18,79.85,79.85,0,0,0,5.58-6.2,59.53,59.53,0,0,0,8-11.78c.28-.52.59-1.15.91-1.84.9-1.74,1.72-3.52,2.49-5.33a79.76,79.76,0,0,0,2.83-7.8l0-.09h1.84c5,0,9-3.53,9-7.87V332.87C557.39,328.53,553.35,325,548.38,325Zm-77.73,96.43a72.11,72.11,0,0,1-29-6.06l-2.78-1.21-18.67,9.27,3.54-19.13-2.62-2.44c-.71-.66-1.42-1.35-2.11-2.05a72,72,0,0,1-15.56-23.47c-.65-1.57-1.23-3.14-1.77-4.74,4.66-.29,8.35-3.7,8.35-7.85V332.87c0-4.07-3.56-7.44-8.1-7.83a72.83,72.83,0,0,1,137.64,0h-1c-5,0-9,3.53-9,7.87v30.88c0,3.73,3,7,7.21,7.71l3,.16a72.49,72.49,0,0,1-17.64,28.51,76.3,76.3,0,0,1-5.83,5.25c-3.68.86-8.36-4-11.45-3.7a6.44,6.44,0,0,0-5.21-2.49h-9.44c-3.43,0-6.22,2.43-6.22,5.45s2.79,5.44,6.22,5.44h9.44a6.11,6.11,0,0,0,6-4.14c1.74-.19,3.36,1.68,5,3.58a72.21,72.21,0,0,1-39.93,11.91Z"/><ellipse class="bb960a56-da0b-4e5e-a8d0-7d8fd4c955e6" cx="495.96" cy="322.52" rx="11.37" ry="11.37"/><ellipse class="bb960a56-da0b-4e5e-a8d0-7d8fd4c955e6" cx="444.16" cy="322.52" rx="11.37" ry="11.37"/><path class="bb960a56-da0b-4e5e-a8d0-7d8fd4c955e6" d="M519.08,348.33c0-2.08-2.21-3.78-4.46-3.78a3.94,3.94,0,0,0-4.07,3.78c0,20.87-18.07,37.5-40.69,37.5s-40.63-16.63-40.63-37.5a3.92,3.92,0,0,0-4.06-3.78c-2.27,0-4.55,1.7-4.55,3.78,0,25.05,22.1,45.43,49.25,45.43S519.08,373.38,519.08,348.33Z"/></g><path class="ff75a9ec-b030-4bb0-a6ae-5c4c6da05794" d="M159.05,2.23a40,40,0,1,0,40,40A40,40,0,0,0,159.05,2.23Z"/><path class="f3274c04-ac58-4ad7-8d7c-ccb0de7a3ffe" d="M158.63,7a1.87,1.87,0,0,0-1.86,1.87V22.92a1.87,1.87,0,1,0,3.73,0V8.86A1.87,1.87,0,0,0,158.63,7Z"/><path class="b40473cd-ec15-4b91-921a-0ef3512972fc" d="M133,52.29a4.42,4.42,0,1,0,4.42,4.42A4.43,4.43,0,0,0,133,52.29Z"/><path class="b40473cd-ec15-4b91-921a-0ef3512972fc" d="M183.43,52.29a4.42,4.42,0,1,0,4.41,4.42A4.43,4.43,0,0,0,183.43,52.29Z"/><circle class="b40473cd-ec15-4b91-921a-0ef3512972fc" cx="158.6" cy="18.7" r="4.42"/><path class="a7609882-d7fb-4d01-aa94-806d61c46ab6" d="M158.63,17.15A25.86,25.86,0,0,0,132.8,43v21.6a25.64,25.64,0,0,0,1.66,9.09,39.88,39.88,0,0,0,48,1,25.7,25.7,0,0,0,2-10V43A25.86,25.86,0,0,0,158.63,17.15Z"/><rect class="aa87576d-ff7d-4db7-99c3-25925c56d3b8" x="137.78" y="22.77" width="41.64" height="39.05" rx="17.63"/><circle class="b40473cd-ec15-4b91-921a-0ef3512972fc" cx="143.28" cy="39.41" r="1.24"/><circle class="b40473cd-ec15-4b91-921a-0ef3512972fc" cx="173.92" cy="39.41" r="1.24"/><circle class="f3274c04-ac58-4ad7-8d7c-ccb0de7a3ffe" cx="169.86" cy="66.84" r="1.48"/><circle class="bc584bcd-e87d-49a5-9ff5-c6921484fdda" cx="173.69" cy="66.84" r="1.48"/><path class="b40473cd-ec15-4b91-921a-0ef3512972fc" d="M141.46,42.65h0a.26.26,0,0,1-.24-.28,2.09,2.09,0,0,1,4.17,0,.26.26,0,1,1-.52,0,1.57,1.57,0,0,0-3.13,0A.27.27,0,0,1,141.46,42.65Z"/><path class="b40473cd-ec15-4b91-921a-0ef3512972fc" d="M172.1,42.65h0a.27.27,0,0,1-.24-.28,2.09,2.09,0,0,1,4.17,0,.26.26,0,1,1-.52,0,1.57,1.57,0,0,0-3.13,0A.27.27,0,0,1,172.1,42.65Z"/><path class="f607bfe5-1182-4879-989e-089102c696d3" d="M148.2,69.17h-4.95a1,1,0,1,1,0-2.09h4.95a1,1,0,0,1,0,2.09Z"/><path class="b40473cd-ec15-4b91-921a-0ef3512972fc" d="M148.2,68.12h-4.95a1,1,0,1,1,0-2.09h4.95a1,1,0,0,1,0,2.09Z"/><path class="b40473cd-ec15-4b91-921a-0ef3512972fc" d="M158.82,49.52a6.57,6.57,0,0,1-6.52-6,.25.25,0,0,1,.23-.28.28.28,0,0,1,.29.24,6,6,0,0,0,12,0,.27.27,0,0,1,.28-.24.26.26,0,0,1,.24.28A6.58,6.58,0,0,1,158.82,49.52Z"/><path class="f607bfe5-1182-4879-989e-089102c696d3" d="M136.4,65.52V48.14a.83.83,0,1,0-1.65,0V65.52a21.13,21.13,0,0,0,2.83,10.57c.71.46,1.44.89,2.18,1.3a.83.83,0,0,0,0-.92A19.47,19.47,0,0,1,136.4,65.52Z"/><path class="f3274c04-ac58-4ad7-8d7c-ccb0de7a3ffe" d="M193,63.5a15.8,15.8,0,0,0-5.26-7.61,3.74,3.74,0,0,1,.08.82,4.42,4.42,0,0,1-1.3,3.13c1.42,1.45,3.05,3.63,3.07,6.07a6.31,6.31,0,0,1-1,3.33A39.63,39.63,0,0,0,193,63.5Z"/><path class="f3274c04-ac58-4ad7-8d7c-ccb0de7a3ffe" d="M126.92,66.9a5.51,5.51,0,0,1-.08-1c0-2.44,1.65-4.62,3.07-6.07a4.42,4.42,0,0,1-1.3-3.13,4.47,4.47,0,0,1,.08-.82,17,17,0,0,0-4.8,6.23Z"/><path class="e4a25b2d-5b5d-4f34-b24d-f2d3969c0a69" d="M159.05,2.23a40,40,0,1,0,40,40A40,40,0,0,0,159.05,2.23Z"/><path class="e6621f88-b39b-452f-9889-abdb42189382" d="M283,333.41a20.59,20.59,0,0,0,21,20.12,21.54,21.54,0,0,0,7.78-1.43l4.88,3a.85.85,0,0,0,.47.13.87.87,0,0,0,.87-.87v-6a19.77,19.77,0,0,0,7-15,21,21,0,0,0-42,0Z"/><path class="a3bc1063-10f1-455f-b300-e5cc613f199b" d="M279.66,301.32a26.47,26.47,0,0,0-27,25.86,25.36,25.36,0,0,0,9,19.24v7.74a1.13,1.13,0,0,0,1.72.95l6.27-3.91a28,28,0,0,0,10,1.84,25.88,25.88,0,1,0,0-51.72Z"/><path class="bb960a56-da0b-4e5e-a8d0-7d8fd4c955e6" d="M294.71,320.89a1,1,0,0,0-1.22-.27l-9.9,5.41-6.17-5.29a1,1,0,0,0-1.29.05L264.7,332.22a1,1,0,0,0,1.13,1.51l9.9-5.4,6.17,5.29a1,1,0,0,0,1.3-.05l11.43-11.44A.94.94,0,0,0,294.71,320.89Z"/><path class="a52a6ce4-89ae-4ecd-a372-aa825cfb4bbf" d="M226.85,454.68l-106.08-6.77a6.41,6.41,0,0,1-6.07-8l6.39-28.48a9.34,9.34,0,0,1,9.44-7l106.08,6.77a6.39,6.39,0,0,1,6.08,8l-6.4,28.48A9.37,9.37,0,0,1,226.85,454.68Z"/><line class="b02fbf21-cf3d-4b16-bf71-ac30121aafad" x1="167.32" y1="424.69" x2="181.49" y2="425.6"/><line class="a75d7605-225b-407d-b98f-edd4d03bd92b" x1="165.53" y1="432.63" x2="195.59" y2="434.55"/><ellipse class="e0c3a25d-f44d-4d66-ac72-f78c041a95bb" cx="142.91" cy="427.28" rx="11.44" ry="9.76" transform="translate(-217.41 156.79) rotate(-34.61)"/><ellipse class="abab542a-763e-4212-8628-82aa6b0e4b66" cx="143.22" cy="425.92" rx="3.38" ry="2.88" transform="translate(-216.58 156.73) rotate(-34.61)"/><path class="b87398fb-47cb-4cec-a974-4e413ba3c1f4" d="M138.7,431.81a3.79,3.79,0,0,1,3.83-2.85,2.6,2.6,0,0,1,2.47,3.25"/><path class="bb960a56-da0b-4e5e-a8d0-7d8fd4c955e6" d="M132.41,455.45a5.76,5.76,0,0,1-5.91-6V420.28a8.75,8.75,0,0,1,7.19-8.32l105-16.63a7.24,7.24,0,0,1,1.12-.09,5.73,5.73,0,0,1,5.89,6v29.19a8.75,8.75,0,0,1-7.19,8.32l-105,16.63A6.89,6.89,0,0,1,132.41,455.45Z"/><path class="bd7915bc-eb63-4fe8-9d2b-86511f4a3e69" d="M239.8,395.82a5.18,5.18,0,0,1,5.31,5.4v29.19a8.27,8.27,0,0,1-6.7,7.75l-105,16.63a7,7,0,0,1-1,.08,5.19,5.19,0,0,1-5.33-5.4V420.28a8.15,8.15,0,0,1,6.7-7.75l105-16.63a5.92,5.92,0,0,1,1-.08m0-1.16a7.31,7.31,0,0,0-1.21.1l-105,16.62a9.35,9.35,0,0,0-7.67,8.9v29.19a6.36,6.36,0,0,0,6.48,6.56,8.07,8.07,0,0,0,1.19-.1l105-16.63a9.37,9.37,0,0,0,7.68-8.89V401.22a6.33,6.33,0,0,0-6.47-6.56Z"/><line class="fabf1182-09aa-49ef-adf2-5568d060b7a3" x1="173.93" y1="423.08" x2="187.96" y2="420.86"/><line class="e1e1288f-8579-43de-959c-bc7abec50874" x1="173.93" y1="431.22" x2="203.68" y2="426.51"/><ellipse class="a3a2c25f-aadc-440b-8914-e9db25b36fe0" cx="150.69" cy="430.95" rx="11.44" ry="9.76" transform="translate(-268.1 249.18) rotate(-47.26)"/><ellipse class="aead6443-f4ff-4560-80b8-29c49c579e63" cx="150.69" cy="429.56" rx="3.38" ry="2.88" transform="translate(-267.08 248.73) rotate(-47.26)"/><path class="e43986e3-d270-4313-a764-06ac8ba756fa" d="M147.57,436.29a3.79,3.79,0,0,1,3.12-3.61,2.6,2.6,0,0,1,3.12,2.63"/><path class="a4f763c4-ff70-4869-b7ae-57e7c0387b0e" d="M187.34,583.2s-4,5.81-1,11.85H198s.34-2,1.88-2-.52,2,5.87,2,2.3-7.83,2.3-7.83-4.18.43-4.77-4.85h-2.81l-4.77-2.55Z"/><path class="ffd5cf88-ef14-4ac5-9013-2df62f6d4758" d="M220.77,358.28s.81-4.77,0-5.62a3.51,3.51,0,0,1-1.28-2.43c0-1,1-2.21.82-3.48s-1.81-7.71-4.47-9.69l-1.46-.7-3.91,5.92,4.81,3,1.83,7.19-1.31,7.19,2.84,2.34Z"/><path class="ffd5cf88-ef14-4ac5-9013-2df62f6d4758" d="M194.94,367.77s10.29-1.83,14.89.68a8.39,8.39,0,0,1,.42-2.73c.52-2,4.22-4.72,4.22-4.72l2.64-8.55L214.68,347,195.46,360Z"/><path class="f903c280-d22c-422d-b887-d9e17dfdf9a8" d="M210.17,366.11a14.9,14.9,0,0,1,2.43-6.1c2.49-3.24,3.46-4.94,3.46-7.26s-.74-2.78-1.7-2.78a2.52,2.52,0,0,0-2.05,2.61,5,5,0,0,0,.63,2.43s2.1,4.43-17.48,4.94c0,0-1.76-8.91-3.52-11.52s-4.82-8.73,3.41-10c0,0-.74-3.18,1.13-4.43s9.31-3.74,13.68-2.84,5.9,3.18,5.9,4.66-1.19,3.51-2.33,5-1.22,1.49-.47,1.53,2.7.28,3,1.11-.46,2.17-.19,3,2.62,3.76,1.6,8.45-.26,4.8,3.15,3.36c0,0,1,8-1.75,8Z"/><path class="b05518c6-29f2-4a38-b2a2-342e6622d54e" d="M225.79,447.3s1.45,14.84,3.71,19.83,10.67,33.82,12.26,43.12,4.31,12.94-2,30.42S222.81,589,222.81,589l-11.91-4.83s9.07-46.46,11.8-55.09c0,0-11.12-17.93-12.49-25s0,15.66-1.13,24.28-8.09,48.29-7.63,54c0,0-1.45,2.55-14.84.74,0,0-.45-30.87,0-39s-3.18-24.74-2.27-59.24c0,0-10-13.61.77-37.1C185.11,447.73,216.85,441.77,225.79,447.3Z"/><path class="bb533590-6014-4202-8f38-2646c28ed26d" d="M209.84,502.81s-5.3-12.41-9.16-18.09-3.64-7.94-3.64-7.94a59,59,0,0,0,2.73,23.83c4.18,11.8,8.91,30.23,6.2,47.12,0,0,2.93-13.39,3.25-20.67S209.84,502.81,209.84,502.81Z"/><path class="bb960a56-da0b-4e5e-a8d0-7d8fd4c955e6" d="M260,372.79s10.39,5.15,10.64,5.49a2.06,2.06,0,0,1-1.45,2.55c-1.53.34-10.89-3.32-10.89-3.32v-2.45S257.79,373.26,260,372.79Z"/><path class="f102788c-847d-4dd5-b8ac-5a706b5944a8" d="M214.3,372.49l-4.47-4s-1.53-2.9-2.13-2.94-12,1.07-12,1.07l-.76,1.19a.8.8,0,0,0-.94.21,7.07,7.07,0,0,0-1.7,4.81S201.11,368.87,214.3,372.49Z"/><path class="f4a41d66-219c-49b6-9d8e-3e90b9d12061" d="M258.3,375.06,254,379.64a54.41,54.41,0,0,0-13.36-3c-6.21-.34-7.66-2.47-10.83-2.92-2.2-.31-15.55-1.25-15.55-1.25L206,369.6a25.68,25.68,0,0,0-13.72,3.19c-6.94,3.87-16,8.13-18.17,10.34s-3.41,4.08-5.79,22.81h11.74s4.94,7.74,4.26,20-1.36,16.34.77,21.79c0,0,2.38,3,12.42,1.19s12.26.89,19.07.57,9.19-2.19,9.19-2.19,0-11.49,1.45-24.94,2.46-22.89,2.55-24.85c0,0,25,.6,31.74-4.25a19.67,19.67,0,0,0,7.66-12.43Z"/><path class="ffd5cf88-ef14-4ac5-9013-2df62f6d4758" d="M285.34,349.11c.41,2.23-7.72,10.61-9.65,12.2s-5.76,16.53-5.76,16.53l-9.93-5s10.47-14.94,9.9-16.87a13,13,0,0,1,0-4.84h3.17c.88-.51,5.25-8,5.7-9.29.21-.57,1-.47,1.82-.15a5.25,5.25,0,0,1,2.95,2.95Z"/><path class="a7a78997-5898-46b8-bddb-c1183037dd22" d="M209.84,584.16s-4.22,6.89-3.8,11.66l11.49,3.83s.34-2.56,2.22-1.71,1.1,2.3,4.42,2.3h14.38s.43-7-3.65-7.23-8.6.93-8.6-5.58c0,0-.17-.46-4.43,0S217,584.07,209.84,584.16Z"/><circle class="b3ce838d-73bf-41e8-8c7f-4d7d2271d7aa" cx="93.45" cy="256.71" r="26.74"/><path class="bb960a56-da0b-4e5e-a8d0-7d8fd4c955e6" d="M98.37,257.77H94.76V271H89.3V257.77H86.7v-4.64h2.6v-3c0-2.15,1-5.51,5.51-5.51l4,0v4.5H95.92a1.11,1.11,0,0,0-1.16,1.27v2.73h4.08Z"/><polygon class="a212f8ce-2cde-4d61-af7c-5eb9c099153a" points="633.67 609.67 671.43 594.11 657.72 610.78 689.31 598.97 667.46 586.56 648.14 590.03 597.87 613.75 633.67 609.67"/><path class="a212f8ce-2cde-4d61-af7c-5eb9c099153a" d="M746.49,600.81c33.81-7.31,70.14-21.83,90.25-37,26.08-19.73,15-33.14-24.77-29.95s-93.14,21.76-119.22,41.48l53.74,25.51"/><path class="bb960a56-da0b-4e5e-a8d0-7d8fd4c955e6" d="M661.85,554.23s-7.1,18.43-15.26,28.71-8.46,11.17-8.46,11.17l-9.67-5.28s15-50.77,15.86-53.94,3-7.39,9.52-7.39S661.85,554.23,661.85,554.23Z"/><path class="e5b7d6ba-5614-4fbd-834a-3dface2d1e3e" d="M735.93,603.85a218.91,218.91,0,0,1-77.46-3.61c-9-2.07-17.93-5-25.59-10.11-9.44-6.35-15.9-15.91-16.92-27.35-.69-7.77.79-15.62,3.31-23,7.84-23,25.54-40,46.59-51.33,19.58-10.54,41.8-17.8,64.27-15.41,15.86,1.69,32,5.74,46.35,12.68,20.46,9.86,37.21,27.07,38.09,50.85,1.24,33.25-24.61,53.09-53.76,61.9A165.45,165.45,0,0,1,735.93,603.85Z"/><path class="a212f8ce-2cde-4d61-af7c-5eb9c099153a" d="M731.52,544.35a302,302,0,0,1-61.19,7.84c-7.21.16-14.45-.05-20.83-1.43-7.87-1.71-13.62-5.22-15.22-10.26-1.09-3.41-.48-7.13,1-10.76,4.56-11.34,17.29-21.15,33.06-28.83C683,493.77,700,487.78,717.8,486.12a182.62,182.62,0,0,1,37.34.05c16.79,1.94,31.17,7.65,33.53,18.25,3.3,14.83-15.64,26.93-38,34.46C744.61,540.94,738.16,542.76,731.52,544.35Z"/><path class="a212f8ce-2cde-4d61-af7c-5eb9c099153a" d="M683.9,591.17l-7,12.45-12.19-2.2S673.66,589.86,683.9,591.17Z"/><path class="b9e4bf75-9152-4d0a-a1dc-6781edcf73d6" d="M672,576.59s6.2,9.37,7.86,10.58-5.51,5.69-5.51,5.69l-6-6.75-3.22-6.88Z"/><path class="ae759b20-3658-4a4d-90d8-c18416e679dd" d="M683.15,590l.75,1.13s-13.14,14-17.52,16.46-12.84,5.51-14.61.76S683.15,590,683.15,590Z"/><path class="edca76d7-3aa7-4bab-84cc-df9a17ed8999" d="M683.15,590c-5.51,6-11.37,12.32-18.52,16.35a44.5,44.5,0,0,1-4.76,2.32c-2.35,1-5,1.67-7.35.21-3.82-2.42,8.12-12.77,10.69-15.18s3.52-3.7,4.25-7.18,6.12,3,6.12,3,4.46-1.56,4.63-5a.43.43,0,0,1,.69-.32A12,12,0,0,1,683.15,590Z"/><polygon class="b9e4bf75-9152-4d0a-a1dc-6781edcf73d6" points="635.26 596.08 632.69 601.08 628.46 609.3 619.85 602.69 622.87 600.76 628.46 592.86 635.26 596.08"/><path class="ae759b20-3658-4a4d-90d8-c18416e679dd" d="M633.67,609.67l-.3,1.59s-16.77,7-24.77,7-11.11-1.58-10.73-4.53S633.67,609.67,633.67,609.67Z"/><path class="edca76d7-3aa7-4bab-84cc-df9a17ed8999" d="M633.67,609.67a62.1,62.1,0,0,1-18.35,6.05c-10.05,1.51-16.77,1.2-17.45-2s10.58-6.72,13.75-7.4,8.84-5.59,9.29-6,4.3.07,4.53,4.53c0,0,5,1.49,6.9-2.81a.37.37,0,0,1,.68,0C633.52,603.71,634.33,607.05,633.67,609.67Z"/><path class="bb960a56-da0b-4e5e-a8d0-7d8fd4c955e6" d="M661.85,554.23s-7.1,18.43-15.26,28.71-8.46,11.17-8.46,11.17l-9.67-5.28s15-50.77,15.86-53.94,3-7.39,9.52-7.39S661.85,554.23,661.85,554.23Z"/><path class="bb960a56-da0b-4e5e-a8d0-7d8fd4c955e6" d="M752.43,526l-35.67-17.8s-4.76,5.37-6,4.91-40.79-10-60-4c0,0-5,1.84-1.36,16.9s13.29,50.55,13.75,50.55,8.91-3.78,8.91-3.78-.45-16.16.3-28.09c0,0,34.6-.31,41.77.9S743.77,551,752.43,526Z"/><path class="bf995556-f259-4005-9cda-3809718167b3" d="M706.26,517.68l-42.45-4.23s9,5.28,8.61,31.27c0,0,7.36-17.54,1.06-22.45Z"/><path class="bf995556-f259-4005-9cda-3809718167b3" d="M706.26,517.68l-42.45-4.23s9,5.28,8.61,31.27c0,0,7.36-17.54,1.06-22.45Z"/><path class="bf995556-f259-4005-9cda-3809718167b3" d="M655.55,557.3c-2.11-4.63-6-9.26-5.33-14.4s-2.07-12.23-4-12a8.08,8.08,0,0,1,3.71-2.72c2.18,8.85,5.87,22.73,8.8,33.38-.35.78-.73,1.6-1.13,2.45C657.64,564,657.67,561.94,655.55,557.3Z"/><polygon class="a5562240-86c2-4be5-8b56-7dee6ab083d5" points="672.12 572.81 673.58 577.35 664.72 581.68 663.21 576.59 672.12 572.81"/><polygon class="a5562240-86c2-4be5-8b56-7dee6ab083d5" points="635.41 597.39 627.03 593.96 628.01 588.34 638.75 594.11 635.41 597.39"/><path class="a5562240-86c2-4be5-8b56-7dee6ab083d5" d="M747.1,454.88s9-2.16,17.12,2.07,20.34,10.77,22.1,12.64,4.59,6.34,5.74,13a133.53,133.53,0,0,0,4.33,16.87c1.77,5.94,4.84,12.64,4.23,14.85a7.11,7.11,0,0,1-1.86,3.53c0-.86,1.11-9.12-14.35-10.17,0,0-5.69-10-6.7-11.79,0,0-23.31,30.11-25.28,30.16s-29.55-4.73-35.95-16l3.58-23.31-7.3,6.29-16.82-.1s8.26-9.62,11.23-15.51,8.35-16.26,14-17.57S746.18,455.06,747.1,454.88Z"/><path class="afce9697-67d0-477e-825a-b73180a1ad87" d="M771.86,474.19l-5,35.46c2.53-3.14,5-6.31,7.52-9.48l3.18-4.06c.2-.79-.71-2.33-1-3.09-.61-1.48-1.33-2.92-1.94-4.4a35.52,35.52,0,0,1-2.68-15.21"/><path class="b9e4bf75-9152-4d0a-a1dc-6781edcf73d6" d="M782.47,509.14s-18.2,5.44-21.9,6.8-10.22,4.3-12.25,8.61-3.09,9.29-2.71,10,6.72.68,8.39-2.12,6.34-11.33,10-10.8,18.65,2.9,28.38.66C792.38,522.26,797.4,509.5,782.47,509.14Z"/><path class="e9f30e62-fff2-4013-9a0b-ac9915aaeb81" d="M792.06,521.92c.53-1.82,1.69-8.95-10.94-12.35a.27.27,0,0,1,0-.51l3.28-1.39.08,0c.88,0,15-.62,14.31,10.13a.15.15,0,0,1,0,.09c-.15.38-1.48,3.25-6.36,4.39A.27.27,0,0,1,792.06,521.92Z"/><path class="e9f30e62-fff2-4013-9a0b-ac9915aaeb81" d="M715.3,491.71s-3.91-7-14.09-6l-5.8,8.14,16.89.46Z"/><polygon class="e102b49d-84c0-4e2a-abfb-f94016826fe4" points="718.5 454.33 726.2 474.32 720.91 474.85 714.19 457.25 718.5 454.33"/><polygon class="afce9697-67d0-477e-825a-b73180a1ad87" points="719.7 454.33 718.5 454.33 726.2 474.32 726.96 473.42 719.7 454.33"/><path class="b9e4bf75-9152-4d0a-a1dc-6781edcf73d6" d="M725.37,471.6s-4.46,5.44-6,8.84-8.69,18.58-12.69,21.83-6,5.59-12.31,2.41.83-11.63,6.87-16.54,14.58-10.8,14.88-12.69.23-11.55.45-11.78.91,3.4,1.29,2.64,3.17-7.47,4-7.32,1.59,2.26,1.51,3.4,1.43,1,1.59,1.81.15,4,.45,4.53S726.12,469.86,725.37,471.6Z"/><path class="e9f30e62-fff2-4013-9a0b-ac9915aaeb81" d="M747.69,461.08l-2.28-3.17-4.55,1,5.52-3.92,1.8,4.22.79-1.58L760.06,455s4.13-1,4.05,2l-11.63,7.12-2.42-4Z"/><polygon class="b377fd34-1790-4023-8929-8a3ba8331481" points="757.88 446.63 760.16 456.13 748.18 460.09 746.79 457.71 746.79 452.86 757.88 446.63"/><path class="b377fd34-1790-4023-8929-8a3ba8331481" d="M759.47,445.24s6.23-2.08,3.36-6.83c0,0-4.9-1.1-5.24,5.35C757.59,443.76,757.66,446.14,759.47,445.24Z"/><path class="b9e4bf75-9152-4d0a-a1dc-6781edcf73d6" d="M758.87,442.87a19.78,19.78,0,0,1-.79,2.9c-1.17,3.37-3.83,8.48-9.21,8.48-8,0-10.09-9-10.59-21.08l17-5.15Z"/><path class="e0e6dc85-8934-497b-8d84-1a432dba5858" d="M752,431.68s-12.47,5.94-15.84-.69,18.71-11.58,20.69-7.33c0,0,5.35-.79,6.14,2s2.18,9.31-.79,13.86-4.75,3.37-4.75,3.37l-.6-4.26s-4-3.17-4.41-5.05Z"/><path class="a212f8ce-2cde-4d61-af7c-5eb9c099153a" d="M852.39,582.26c12.72-2.75,26.4-8.22,34-13.94,9.82-7.43,5.64-12.48-9.32-11.28s-35.07,8.19-44.89,15.62l20.24,9.6"/><path class="bf9d5120-8fed-4f89-a65b-270554e04b94" d="M851.42,555.14s38-21.39,36.23-31.74-13.21-9.45-18.08-5.85-15,10.58-16.8,5.18,11.87-10.53,20.71-17.56c8.5-6.76,17.58-19.71,9-25.88-7.2-5.18-16,14.85-22.28,10.8s13.28-25.43,2.47-32-20.7,13.73-20.93,27.24-6.52,6.3-8.33,1.12-2.41-8.23-6.75-9.45c-5.62-1.58-8.77,4.95-5.85,17.1s15.31,16.21,16.21,27-8.56,4.73-14.86.45-11.93-1.8-13.73,1.35-5.4,10.35,26.11,32.19Z"/><path class="a3f7b7e3-f8bf-4d76-8b42-6285b1556901" d="M875.72,491.91a40,40,0,0,1-19.08,10.65c-7,1.69-15.63,1.89-22.21-1.53-3.56-1.84-6.59-5.24-6.89-9.39"/><path class="a3f7b7e3-f8bf-4d76-8b42-6285b1556901" d="M855,469.51a155.76,155.76,0,0,0-8.59,84.35"/><path class="a3f7b7e3-f8bf-4d76-8b42-6285b1556901" d="M871.81,529.24c-10.47,10.23-26.4,13.38-40.29,9.47-4.31-1.22-10.71-3.92-14.31-8.33"/><path class="bc07913b-bbfd-45d4-b7fd-bd12c19ce3a6" d="M839.09,556.61s-26.64-5-27.65-11.44,5.89-8.2,9.47-7,10.94,3.23,10.92-.31-9.09-3.82-15.69-6.2c-6.35-2.28-14.27-8.08-10.46-13.42,3.21-4.49,12.37,5.55,15.27,1.9s-12.89-12.31-7.84-18.3,14.92,3.94,17.75,11.84,5.1,2.41,5.12-1-.22-5.32,2.09-6.91c3-2,6.15,1.17,6.85,8.9s-5.77,12.59-4.14,19.12,6,1.07,8.83-2.7,6.66-3.44,8.34-1.94,5.25,5-8.93,24.14Z"/><path class="ecb656a6-5ee5-4970-9b68-23f5a26704f2" d="M812.18,524.26a24.81,24.81,0,0,0,13.35,2.46c4.47-.41,9.57-2,12.76-5.33a7.53,7.53,0,0,0,2.18-6.9"/><path class="ecb656a6-5ee5-4970-9b68-23f5a26704f2" d="M819.9,507a96.76,96.76,0,0,1,21.89,47.91"/><path class="ecb656a6-5ee5-4970-9b68-23f5a26704f2" d="M821.93,545.44c8.19,3.93,18.19,2.61,25.59-2.47,2.29-1.58,5.51-4.44,6.75-7.75"/><path class="f6a47e62-0ea9-49d0-a956-a9a396af5501" d="M848.42,557.88s15.36-2.88,15.94-6.6-3.39-4.73-5.46-4.07-6.31,1.87-6.3-.17,5.24-2.21,9-3.58,8.23-4.66,6-7.74c-1.85-2.59-7.13,3.2-8.8,1.1s7.43-7.1,4.52-10.56-8.61,2.28-10.24,6.83-2.94,1.39-2.95-.57.13-3.08-1.21-4c-1.72-1.18-3.54.67-4,5.13s3.33,7.26,2.39,11-3.45.62-5.09-1.56-3.84-2-4.82-1.12-3,2.89,5.16,13.92Z"/><path class="b8023bdf-e1b8-4612-8922-a3514e593e2a" d="M863.94,539.22a14.33,14.33,0,0,1-7.7,1.42,11.9,11.9,0,0,1-7.36-3.08,4.29,4.29,0,0,1-1.26-4"/><path class="b8023bdf-e1b8-4612-8922-a3514e593e2a" d="M859.48,529.24a55.78,55.78,0,0,0-12.62,27.63"/><path class="b8023bdf-e1b8-4612-8922-a3514e593e2a" d="M858.31,551.44A15,15,0,0,1,843.56,550a10.62,10.62,0,0,1-3.9-4.47"/><path class="f545aa42-ec62-4c18-8a80-543d8331dd89" d="M843.49,554.69h16.43a1,1,0,0,1,1,1.13c-.19,2.08-.82,6.36-3,7a1,1,0,0,0-.67.8l-3.1,17.79a1,1,0,0,1-.87.85,125.34,125.34,0,0,1-19.76,0,1.05,1.05,0,0,1-.88-.85l-3.09-17.79a1,1,0,0,0-.67-.8c-2.13-.63-2.76-4.91-3-7a1,1,0,0,1,1-1.13Z"/><path class="bec8e780-37bb-44f2-bcb3-e9d1db234d8a" d="M787.43,26.72h0A26.64,26.64,0,0,0,765.84,69l-3.32,9.9,10.25-3.27a26.64,26.64,0,0,0,41.31-22.25A26.68,26.68,0,0,0,787.43,26.72Z"/><path class="b1589416-16ba-4bc1-8a37-951dce284bd9" d="M800.09,62.35c-.52,1.47-2.59,2.7-4.25,3.06-1.13.24-2.61.43-7.59-1.64-6.36-2.63-10.46-9.1-10.78-9.52s-2.58-3.43-2.58-6.54a6.89,6.89,0,0,1,2.22-5.27,3.16,3.16,0,0,1,2.21-.78c.27,0,.51,0,.73,0,.64,0,1,.06,1.38,1.07.52,1.26,1.79,4.36,1.94,4.68a1.31,1.31,0,0,1,.1,1.18,4,4,0,0,1-.71,1c-.32.37-.62.65-.94,1s-.62.71-.25,1.34a19.21,19.21,0,0,0,3.51,4.37,16,16,0,0,0,5.08,3.14,1.39,1.39,0,0,0,1.53-.24A25.63,25.63,0,0,0,793.38,57a1.22,1.22,0,0,1,1.56-.47c.58.2,3.68,1.73,4.31,2.05s1.06.47,1.22.74A5.39,5.39,0,0,1,800.09,62.35Z"/><path class="a3961121-2e81-4c73-aa9e-516a790bd438" d="M714.49,82.32l-.85,6.16-4.41-8.2-1.47.44s-2,14-14,31a1.15,1.15,0,0,0,.28,1.63l11.11,7.74a2.7,2.7,0,0,1,2.61-1.09c1.9.16,28.07,6,38.59,8.73,0,0,2.88,6.23,11.84,3,0,0,1.25-30.7-14.41-52.5-16.37-22.8-18.69-4.43-18.69-4.43S718.71,82.42,714.49,82.32Z"/><path class="a7fd8f6a-fd8b-447a-9fb2-85eb58c8f8d4" d="M732.81,107.94s6.58-12.07,8.09-15.8c1.38-3.42,1.09-3.35,1.17-1.72s-2.56,26.6-12.38,34.33-23.56-4-23.56-4l6-6.91Z"/><path class="eee17470-117d-4896-9e84-19376a3a9b8f" d="M744.4,77.94a20.92,20.92,0,0,0-5.14-8.82c-3.8-3.81-8.57-4-13.67-3.27a15.35,15.35,0,0,0-3.91.91,6.32,6.32,0,0,0-1.51.89,32.32,32.32,0,0,0-3,3l-3.94,4q-2.57,2.6-5.14,5.17s-1.65,2.7,2.47,3.69v9.94h.83V83.6a19.36,19.36,0,0,0,2.9.2,8.93,8.93,0,0,0,1-.07c.44,2.67,1.44,11-1.9,17.09l.73.4c3.5-6.35,2.47-14.84,2-17.62,7.47-1.48,11.66-11.43,17.57-11.77,6.39-.37,10.6,9.56,11,8.08A4.05,4.05,0,0,0,744.4,77.94Z"/><ellipse class="e4cb92d0-d18c-4859-9750-ac01eb2a0daa" cx="720.05" cy="74.18" rx="8.02" ry="2.72" transform="translate(195.37 572.86) rotate(-49.43)"/><path class="ffd5cf88-ef14-4ac5-9013-2df62f6d4758" d="M721.7,55.92l-4.17-1.64-.16,8.36-.31.71h0V48.05l-10.84-4.44L695.1,47.19l-3.27,3.12,1.48,8.06s.62,9.08,1.87,11.69,5,8.6,5,8.6l7.62-1.08,5.86,10.9.85-6.16c7.17-3.74,8-10.36,7.23-11.43a28.72,28.72,0,0,1-2.09-4.61s3.35,1.56,3.66-4.17S721.7,55.92,721.7,55.92Z"/><path class="e4cb92d0-d18c-4859-9750-ac01eb2a0daa" d="M718.54,44.23c-3.62-1.63-9.11-2-11.1-3.5s-1.4-2.1-3.62-2-1.17,1-2.69,1.29-7.36-1.4-9.69,4.44,1.87,13.9,1.87,13.9V51.13h4.9c1.64,0,4.91-1.42,7.36-2.58s5.49-1.88,6.66,0,2.69,6.55,3.74,6.67v7.47s-2.57,6.78-4.32,6.78c0,0-.74-3.43-8.06-2.69-4.86.49-6.19,3-6.5,5.22a4.88,4.88,0,0,1-1.91-1.94s1.5,5.75,3,7.49h0c1.05,1.74,3.06,3.49,7,3.49,7.71,0,13.9-8,13.9-13.79s-2.8-12.5,2.69-11.33C721.7,55.92,722.16,45.87,718.54,44.23Z"/><path class="b5824c39-6018-443b-88c5-cd3b6614d385" d="M705.15,121.11l-2.9-3.31L701,115.61l-.93-.27-4.93-5.65-1.24.42c-4.15-5.23-10.28-12.23-11.32-13.58-1.39-1.79-1.3-3.5-1.57-4.84a11.52,11.52,0,0,0-1.21-2.91h0a12.84,12.84,0,0,1-3.07-.37c.19,1.14.4,2.46.4,2.46-1.29-.47-2.3-1.89-3.09-3.45a13,13,0,0,1-4.4-3.67c-.21.46-.43,1-.67,1.67-1.55,4.28-1.12,7.71,2.58,9.85s5.51,2.2,6.95,6,12.58,22.32,14.83,25.53,8.95-.84,8.95-.84l2.57-3.49-.41-.73Z"/><path class="b1210446-e582-4031-b7aa-c10f2ed6f9f6" d="M683.55,92.58s0,0,0,0L674.3,82.08l-10.13,2.06.05,0h-.05l.05,0h-.05l.05,0h-.05l.05,0h-.05l.05,0h-.05l.05,0h-.05l.05,0h-.05l.05,0h-.05l.05,0h-.05l.05,0h-.05l.05,0h-.05l.05,0h-.05l.05,0h-.05l.05,0h-.05l.05,0h-.05l.05,0h-.05l.05,0h-.05l.05,0h-.05l.05,0h-.05l.05,0h-.05l.05,0h-.05l10.92,10.51s5.29,2.73,8.48-2.1l0,0s0,0,0,0l0,0s0,0,0,0l0,0s0,0,0,0l0,0s0,0,0,0l0,0s0,0,0,0l0,0s0,0,0,0l0,0s0,0,0,0l0,0s0,0,0,0l0,0s0,0,0,0l0,0s0,0,0,0l0,0s0,0,0,0l0,0s0,0,0,0l0,0s0,0,0,0l0,0s0,0,0,0l0,0s0,0,0,0l0,0s0,0,0,0l0,0s0,0,0,0l0,0s0,0,0,0l0,0s0,0,0,0l0,0s0,0,0,0Z"/><path class="e4cb92d0-d18c-4859-9750-ac01eb2a0daa" d="M683.57,93.85,674.3,83.37l-10.13,2.07L675.09,96S680.38,98.68,683.57,93.85Z"/><path class="f17f17e9-a301-45b8-ab95-ab445d40d102" d="M700.14,71.75a10.38,10.38,0,0,0,2.06.34,9,9,0,0,0,1.87-.15c.63-.12,1.26-.3,1.92-.49s1.33-.42,2.1-.56a5.78,5.78,0,0,1-3.75,2.5,4.53,4.53,0,0,1-2.39-.17A3.48,3.48,0,0,1,700.14,71.75Z"/><path class="ffd5cf88-ef14-4ac5-9013-2df62f6d4758" d="M728.75,114.8s-4.62,7.48-8.7,5.53-25.74-14.09-29.32-17-5.45-2.06-10.43-2.2-7.32-3.26-8.1-8.24.15-5.38,1.24-4.75,6.31,6.31,10.13,5.76c0,0-2.57-3.19-3-3.58s0-2.34,1.95-1.33A22.61,22.61,0,0,1,688,92.6c1,1.17,1.87,2.89,4.28,3.9s19.69,7.07,24.85,9.81l4.58-.93,7.73,4.67Z"/><path class="b1210446-e582-4031-b7aa-c10f2ed6f9f6" d="M717.14,106.31c.47,0,9.74,4.68,11.61,8.49,0,0,3.42-3,4.44-4.24s-.63-3.78-4.37-6.27-7.86-4.67-9.34-2S717.14,106.31,717.14,106.31Z"/><path class="b5824c39-6018-443b-88c5-cd3b6614d385" d="M715.19,166.14s2.57,4.8,2.81,6.8,3.27,3.55,3.27,3.55l6.23-6.3,1.64-6.05-5.85-5.79Z"/><path class="eee17470-117d-4896-9e84-19376a3a9b8f" d="M730,164.06l5.07,5.35-16.21,14.45H706.13s-.36-4.79,3.53-5,7.17.93,7.48-6.85c0,0,1.56-1,4.28,1.61,0,0,6.23-7.08,7.72-9.53A.54.54,0,0,1,730,164.06Z"/><path class="e4cb92d0-d18c-4859-9750-ac01eb2a0daa" d="M735.64,170.08l-.67-.75-16.09,14.53H706.12v1a1,1,0,0,0,1,1h12.55l2.2-2,13.72-12.39A1,1,0,0,0,735.64,170.08Z"/><path class="a7fd8f6a-fd8b-447a-9fb2-85eb58c8f8d4" d="M714.19,104.94c-2.19-6-6-16-8-18h0A82.14,82.14,0,0,1,701,99.75C705.43,101.41,710.61,103.38,714.19,104.94Z"/><path class="e4cb92d0-d18c-4859-9750-ac01eb2a0daa" d="M724.46,159.22l-8.69,8.29a1.25,1.25,0,0,1-1.73,0l-30.68-29.66a4.85,4.85,0,0,1-1.45-3c-.26-2.54-.17-6.88,3.2-8,4.2-1.47,15,.7,17.85,1.3a1.22,1.22,0,0,1,.9.79l5.33,14.57a1.17,1.17,0,0,0,.34.5l14.9,13.42A1.26,1.26,0,0,1,724.46,159.22Z"/><path class="ffd5cf88-ef14-4ac5-9013-2df62f6d4758" d="M672.39,175a45.16,45.16,0,0,0,6.08-6.9c2.45-3.62,9.58,3.45,9.58,3.45v6.07l-14.72,5.09-1.42-5Z"/><path class="eee17470-117d-4896-9e84-19376a3a9b8f" d="M688.05,176.72v8.65h-34s0-5,4.79-5.6,11.33-2.69,13.55-4.79c0,0,2.1.46,2.22,4.32,0,0,11.44-.43,13.26-2.64A.1.1,0,0,1,688.05,176.72Z"/><path class="e4cb92d0-d18c-4859-9750-ac01eb2a0daa" d="M687.06,187.36H655a1,1,0,0,1-1-1v-1h34v1A1,1,0,0,1,687.06,187.36Z"/><path class="e4cb92d0-d18c-4859-9750-ac01eb2a0daa" d="M706.12,183.86v1a1,1,0,0,0,1,1h9.58l2.2-2Z"/><path class="e3b11e3b-aba9-4b49-b000-b09d64dee9c6" d="M750.68,130.18c-1-.34-2.11-.71-3.39-1.09h0c-9.91-2.93-28.07-6.65-34.92-8-8.53-1.63-9.23,1.06-11.67,4.44-2.15,3-20.92,34.89-25.36,42.45a1.65,1.65,0,0,0,.84,2.38c4.85,1.8,12.1,2.4,14.7,2.56a1.66,1.66,0,0,0,1.49-.76c3.5-5.49,18.2-29.11,19.3-31.09s1.52-2,3-1.52,27.38,5,27.38,5h0c12,2.14,16.12-12.82,16.12-12.82C757.35,132.11,753.56,131.07,750.68,130.18Z"/><path class="afd213b3-f13a-4d1e-9583-e0bbb3e5f195" d="M668.64,79.27l-4.39-3.5a2.84,2.84,0,0,0-1.77-.61H628.25A4.2,4.2,0,0,1,624.06,71V50.13A4.19,4.19,0,0,1,628.25,46h37.5a4.2,4.2,0,0,1,4.19,4.18V78.64A.8.8,0,0,1,668.64,79.27Z"/><rect class="bb960a56-da0b-4e5e-a8d0-7d8fd4c955e6" x="630.1" y="51.68" width="32.83" height="1.69"/><rect class="bb960a56-da0b-4e5e-a8d0-7d8fd4c955e6" x="630.1" y="56.94" width="32.83" height="1.69"/><rect class="bb960a56-da0b-4e5e-a8d0-7d8fd4c955e6" x="638.44" y="62.31" width="24.49" height="1.46"/><rect class="bb960a56-da0b-4e5e-a8d0-7d8fd4c955e6" x="638.44" y="67.57" width="24.49" height="1.46"/><path class="b1210446-e582-4031-b7aa-c10f2ed6f9f6" d="M696.76,107.23q-.76,1.22-1.59,2.46l-1.24.42,11.22,11h0l.09.06a10.93,10.93,0,0,1,1.27-.38c.4-.44.83-1,.83-1l3.47-4.48C706.19,112.78,700.85,109.71,696.76,107.23Z"/><path class="e3b11e3b-aba9-4b49-b000-b09d64dee9c6" d="M257.68,76.24s4.16-14.68,4.46-19.93,2.73-20.29-15.39-21.7-16.9,25.84-19.93,29.67-7.06,7.17-12.06,10.8-20.48,16-14.15,32.28S267.15,136.84,257.68,76.24Z"/><path class="b1210446-e582-4031-b7aa-c10f2ed6f9f6" d="M255.89,82.75s-6.12.16-8.24-2.37l1.68-2A28.68,28.68,0,0,1,255.89,82.75Z"/><path class="eee17470-117d-4896-9e84-19376a3a9b8f" d="M214.4,111.72l9.19-12.92s4.72,26.55,2.46,33c-1.35,3.85-3.32,7.29-4.76,12.9h47.6c-.09-.5-.18-1-.26-1.35-1.14-5.45-2.25-30.73-1.54-40.22,0,0,10.3,14.64,22.11,15.44,0,0-2.23-2-2.93-15.14,0,0-17.87-25.13-36.34-30.58s-30.28,6.16-33.1,8.88S195.35,107.68,199.68,119C199.68,119,198.46,107.18,214.4,111.72Z"/><path class="b1210446-e582-4031-b7aa-c10f2ed6f9f6" d="M244,84.67a35.68,35.68,0,0,1-4.34-4.09s-11.87-.08-12.7-6.07a30.23,30.23,0,0,1,10.68-3Z"/><path class="b1210446-e582-4031-b7aa-c10f2ed6f9f6" d="M236.77,112.06q-.65-.7-1.29-1.44a4.29,4.29,0,0,0-2.83-1.54c-.6-.07-1.21-.06-1.81-.11s-1.22-.15-1.83-.21a3.71,3.71,0,0,1-1.47-.33c-1.9-1.08-.79-4.42-.2-5.89a22.05,22.05,0,0,0,1-3,18,18,0,0,0,.47-4.75,10.44,10.44,0,0,0-.41-2.54c-.11-.38-.22-.75-.32-1.14s0-.53-.33-.65c-.47.75-.39,1.77-.75,2.59a26.68,26.68,0,0,1-3.34,6.16c.38,2.16,2.06,12.16,2.73,20.76l.73,0a163.79,163.79,0,0,0,17.45-1.27c-.36,0-1.78-1.22-2.1-1.45A35.31,35.31,0,0,1,236.77,112.06Z"/><path class="b3ba6794-8f32-4d32-8626-3b83236a8dd7" d="M244,84.67l5.35-6.26s3.43,4,6.56,4.34c0,0-2.32-8.48-6-9.89s-13.11-1.22-13.11-1.22S240.85,80.43,244,84.67Z"/><path class="bbfa0d71-862e-422e-b37e-b8a64c6908f2" d="M239.54,56.31s.7,10.29,0,12.21a6.31,6.31,0,0,1-1.92,3c-.51.4,4.24,6.86,11.71,6.86a92.39,92.39,0,0,0,0-11C248.92,62.87,239.54,56.31,239.54,56.31Z"/><path class="ffd5cf88-ef14-4ac5-9013-2df62f6d4758" d="M294.65,111.52s10.09-21.2,10.9-24.12c0,0,7.67-.21,8.17-3.74s2.53-9.59-4.74-9.49c0,0,.2-5.85-2.32-5.75a42.76,42.76,0,0,1-1.42,5.45,39.76,39.76,0,0,0-3.53,7.57c-.71,2.63-11.51,17.06-12.52,18.88s-.4,9.13-.4,9.13Z"/><path class="ffd5cf88-ef14-4ac5-9013-2df62f6d4758" d="M240.65,52.47s-3.44-3.13-5.15,0a3,3,0,0,0,3.13,4.65s4.14,12.31,11.2,12.81,7.57-10.09,7.77-14.53.1-8.88-1.31-10.09-.61-.41-1.21.8S251.14,52.78,240.65,52.47Z"/><path class="b3ba6794-8f32-4d32-8626-3b83236a8dd7" d="M289.19,100.32a13,13,0,0,0,5.46,11.2s.4,7.17-5.46,7.06c0,0-2.72-3.73-2.92-15.14A4,4,0,0,1,289.19,100.32Z"/><path class="b1210446-e582-4031-b7aa-c10f2ed6f9f6" d="M238.47,121.91c-4,.17-8,.33-11.93.36.23,4.11.16,7.67-.49,9.54-.39,1.11-.83,2.19-1.3,3.3a12,12,0,0,1,1.4-1c3.46-2,6.7-1.09,9.47-4.43,1.8-2.18,3.5-4.13,6.45-4.58a29.51,29.51,0,0,1,7.61.1c-.94-1.16-1.92-2.29-2.91-3.41C244,121.82,241.23,121.8,238.47,121.91Z"/><path class="b1210446-e582-4031-b7aa-c10f2ed6f9f6" d="M261.82,81.84l11.84,28.67s5,4.37,7.55,5.57a26.84,26.84,0,0,0-3.42-8.3C275.17,103.65,264.21,83.26,261.82,81.84Z"/><path class="b3ba6794-8f32-4d32-8626-3b83236a8dd7" d="M204.92,122.82s-3.79.3-5.63-5.15c0,0,1.39-10.69,15.11-6,0,0,.81,1.21,0,1.41S205.82,114.14,204.92,122.82Z"/><polygon class="b877d603-b89f-464b-9d0a-b3694ef374c4" points="251.6 95.07 244.11 132.92 270.67 132.92 279.52 95.07 251.6 95.07"/><path class="ffd5cf88-ef14-4ac5-9013-2df62f6d4758" d="M214.4,113.13s19.79,1.92,26.75,2.83a9,9,0,0,1,7.37-3.83s-1.81,3.08-.55,3.15,6.1-1.34,7.92-3.16,1.81.51,1.21,1.92-2.42,2.63-2.73,3.43-.4,5.56-2.82,6-14-.61-21.4,0-22.91,2-25.23-.61S205.62,111.42,214.4,113.13Z"/><path class="b7266ead-1fc0-41fa-92df-238ec32305b0" d="M198.32,105.67,185.89,118.1a8.79,8.79,0,1,1,12.43-12.43Z"/><path class="ef07507b-93b8-41bc-a559-7d9b2806ad44" d="M198.05,105.93,185.89,118.1a8.76,8.76,0,0,1-2.57-6.1,18,18,0,0,1,1.29-1.48A16.14,16.14,0,0,1,198.05,105.93Z"/><path class="b7266ead-1fc0-41fa-92df-238ec32305b0" d="M183.85,118.3l-12.43-12.43a8.79,8.79,0,0,1,12.43,12.43Z"/><path class="ef07507b-93b8-41bc-a559-7d9b2806ad44" d="M183.16,117.59l-11.47-11.46a16.21,16.21,0,0,1,17.95,19l-3.42,3.42A11.61,11.61,0,0,1,183.16,117.59Z"/><path class="b7266ead-1fc0-41fa-92df-238ec32305b0" d="M202.65,112.13l-16.43,16.43a11.62,11.62,0,0,1,16.43-16.43Z"/><path class="ef07507b-93b8-41bc-a559-7d9b2806ad44" d="M186.31,112.05a16.27,16.27,0,0,1,3.33,13.08l-3.42,3.42a11.6,11.6,0,0,1-1-1.13l-.08-.11a10.32,10.32,0,0,1-.74-1.12l-.08-.13a11.66,11.66,0,0,1-1.1-2.67h0A11,11,0,0,1,183,122a.19.19,0,0,1,0-.08,11.64,11.64,0,0,1,3.28-9.78Z"/><path class="ef07507b-93b8-41bc-a559-7d9b2806ad44" d="M172.42,117.73h24.63l-10.83,10.83a11,11,0,0,1-1.25-1.5,11.57,11.57,0,0,1-1.45,1.77Z"/><path class="b7266ead-1fc0-41fa-92df-238ec32305b0" d="M183.52,128.83,167.08,112.4a11.62,11.62,0,0,1,16.44,16.43Z"/><path class="ef07507b-93b8-41bc-a559-7d9b2806ad44" d="M175.14,120.45l-2.72-2.72h14.13a11.68,11.68,0,0,1-1.59,9.35c-.21.3-.43.6-.67.89s-.39.46-.6.67l-.17.19Z"/><path class="fe957145-043a-47e0-90be-baead60d1939" d="M195.85,120.75a14.61,14.61,0,1,1-22.16,0Z"/><path class="bf0e2b4e-4aa9-4a3d-8d05-9a28b8f977a8" d="M173.69,120.75h6.07a14.6,14.6,0,0,0,8,23.8,14.35,14.35,0,0,1-3,.32,14.6,14.6,0,0,1-11.08-24.12Z"/><rect class="b3c5b601-571f-41a7-8989-39820e203306" x="264.68" y="141.34" width="34.45" height="4" rx="1.61" transform="translate(563.81 286.69) rotate(180)"/><path class="fec42131-8c4a-4c5e-9c3e-489f42250e20" d="M285.34,145.35h55.2a3.33,3.33,0,0,0,2.85-2.71l7.77-34.88c.33-1.5-.41-2.71-1.65-2.71h-55.2a3.32,3.32,0,0,0-2.85,2.71l-7.77,34.88C283.36,144.13,284.1,145.35,285.34,145.35Z"/><ellipse class="bb960a56-da0b-4e5e-a8d0-7d8fd4c955e6" cx="317.42" cy="125.2" rx="8.65" ry="6.62" transform="translate(-3.91 239.99) rotate(-41.18)"/><ellipse class="a9fa24da-160b-4bcf-8a9c-1e4a9dd6f4fe" cx="317.42" cy="125.2" rx="5.54" ry="4.24" transform="translate(-3.91 239.99) rotate(-41.18)"/><path class="f643228c-3c1e-4b06-a957-11ceeb3ef348" d="M372.16,62.32a17.3,17.3,0,0,1-4.93,1.35A8.64,8.64,0,0,0,371,58.92,17.17,17.17,0,0,1,365.55,61a8.6,8.6,0,0,0-14.63,7.84,24.4,24.4,0,0,1-17.7-9,8.61,8.61,0,0,0,2.66,11.47A8.54,8.54,0,0,1,332,70.25v.11a8.59,8.59,0,0,0,6.89,8.42,8.44,8.44,0,0,1-2.26.3,8.56,8.56,0,0,1-1.62-.15,8.59,8.59,0,0,0,8,6,17.32,17.32,0,0,1-12.71,3.56,24.34,24.34,0,0,0,13.16,3.85c15.79,0,24.43-13.08,24.43-24.43,0-.37,0-.74,0-1.11a17.37,17.37,0,0,0,4.28-4.44Z"/><path class="b29789e6-c85f-4cb7-888b-cc19f9dcea35" d="M646.13,432.1l34-4.9a1.7,1.7,0,0,0,1.4-2l-3.61-20.52a1.82,1.82,0,0,0-2-1.51l-34,4.9a1.69,1.69,0,0,0-1.4,2l3.62,20.52A1.84,1.84,0,0,0,646.13,432.1Z"/><path class="beb585b0-71e1-4b91-ab9e-28aa22e17756" d="M661,420.24a3,3,0,0,1-1.36-.31l-17.59-9a.7.7,0,1,1,.63-1.25l17.6,9a1.78,1.78,0,0,0,1.88-.26l13.63-13.51a.7.7,0,0,1,1,0,.69.69,0,0,1,0,1l-13.63,13.51A3,3,0,0,1,661,420.24Z"/><path class="beb585b0-71e1-4b91-ab9e-28aa22e17756" d="M668.25,451.17l38.91-5.61a1.93,1.93,0,0,0,1.6-2.29l-4.14-23.5A2.11,2.11,0,0,0,702.3,418l-38.91,5.61a1.94,1.94,0,0,0-1.6,2.29l4.14,23.51A2.1,2.1,0,0,0,668.25,451.17Z"/><path class="b29789e6-c85f-4cb7-888b-cc19f9dcea35" d="M685.32,437.5a3.21,3.21,0,0,1-1.5-.35l-20.16-10.31a.7.7,0,0,1-.3-.94.69.69,0,0,1,.94-.3l20.15,10.31a2.16,2.16,0,0,0,2.28-.32l15.61-15.47a.7.7,0,0,1,1,1l-15.61,15.47A3.42,3.42,0,0,1,685.32,437.5Z"/><rect class="acdda7f5-a3cf-4e67-a034-d65804a205cb" x="634.02" y="440.19" width="24.13" height="15.12" rx="1.3" transform="translate(1250.72 950.07) rotate(-175)"/><path class="a3961121-2e81-4c73-aa9e-516a790bd438" d="M656.91,442.09a.46.46,0,0,1,.19.85l-5,2.91-5,2.9a2.28,2.28,0,0,1-2.41-.21l-4.41-3.72-4.44-3.74a.46.46,0,0,1,.34-.8Z"/></g></g></svg>