<?xml version="1.0" encoding="UTF-8"?>
<svg width="24px" height="24px" viewBox="0 0 16 16" version="1.1" xmlns="http://www.w3.org/2000/svg" xmlns:xlink="http://www.w3.org/1999/xlink">
    <!-- Generator: Sketch 51.1 (57501) - http://www.bohemiancoding.com/sketch -->
    <title>hi.guru_wordpress_icon</title>
    <desc>Created with Sketch.</desc>
    <defs></defs>
    <g id="hi.guru_wordpress_icon" stroke="none" stroke-width="1" fill="none" fill-rule="evenodd">
        <g id="hi.guru-app-icon-(v10)">
            <path d="M0,0 L14.4375,0 C15.3004449,-1.5852041e-16 16,0.699555078 16,1.5625 L16,14.4375 C16,15.3004449 15.3004449,16 14.4375,16 L1.5625,16 C0.699555078,16 1.05680274e-16,15.3004449 0,14.4375 L0,0 Z" id="Rectangle" fill="#4380E0"></path>
            <g id="Triangle-1-Copy-+-Oval-17-Copy-+-Oval-17-+-Triangle-1-Copy-Copy" transform="translate(1.796875, 2.140625)">
                <g id="Oval-17-+-Triangle-1">
                    <path d="M2.41173513,11.2714247 L3.91762951,10.5231529 L4.12899913,10.5179618 C4.79958772,10.8110582 5.52611993,10.9643369 6.27464172,10.9643369 C9.23503442,10.9643369 11.6348519,8.56582055 11.6348519,5.60716846 C11.6348519,2.64851638 9.23503442,0.25 6.27464172,0.25 C3.31424903,0.25 0.914431515,2.64851638 0.914431515,5.60716846 C0.914431515,6.59118679 1.18004956,7.53567412 1.67566661,8.36066984 C1.89614942,8.72768177 2.16006539,9.06727178 2.46120406,9.37193326 C2.51199421,9.42331757 2.56381328,9.47367784 2.61662721,9.52298076 L2.71669816,9.6163991 L2.41173513,11.2714247 Z" id="Combined-Shape" stroke="#FFFFFF" stroke-width="0.5" fill="#16A6DF"></path>
                    <path d="M2.7265625,5.58069196 C2.7265625,5.43303571 2.88813899,5.3125 3.0482108,5.3125 C3.20828262,5.3125 3.33600139,5.43303571 3.33600139,5.58069196 C3.33600139,7.05725446 4.6111268,8.234375 6.21184494,8.234375 C7.81256307,8.234375 9.09181315,7.05725446 9.09181315,5.58069196 C9.09181315,5.43303571 9.21916895,5.3125 9.37960374,5.3125 C9.53967555,5.3125 9.6953125,5.43303571 9.6953125,5.58069196 C9.6953125,7.35290179 8.13306967,8.79564732 6.21184494,8.79564732 C4.2906202,8.79564732 2.7265625,7.35290179 2.7265625,5.58069196 Z" id="Fill-4" fill="#FFFFFF"></path>
                    <path d="M0.648192139,3.92919017 C0.297506899,3.92919017 0.0117992899,4.17912102 0.0117992899,4.48606257 L0.0117992899,6.67181222 C0.0117992899,6.97943247 0.297506899,7.22868463 0.648192139,7.22868463 L1.34005843,7.22868463 C1.69151952,7.22868463 1.97722713,6.97943247 1.97722713,6.67181222 L1.97722713,4.48606257 C1.97722713,4.17912102 1.69151952,3.92919017 1.34005843,3.92919017 L11.0769967,3.92919017 C10.7253417,3.92919017 10.4404099,4.17912102 10.4404099,4.48606257 L10.4404099,6.67181222 C10.4404099,6.9356564 10.6549331,7.16505661 10.9503388,7.21731642 L11.1695304,7.22868463 C11.1794225,7.41040624 10.6661411,8.38834055 10.2973177,8.88020833 C9.92849426,9.37207612 9.87782885,9.34804684 9.60735834,9.5655278 C9.33688783,9.78300876 8.94093533,9.32996313 8.69195776,9.3561492 C8.61379064,9.25010251 8.4774346,9.1796875 8.32284603,9.1796875 L7.65464323,9.1796875 C7.41218939,9.1796875 7.21434705,9.35207701 7.21434705,9.5655278 C7.21434705,9.77829989 7.41218939,9.95051972 7.65464323,9.95051972 L8.32284603,9.95051972 C8.52980463,9.95051972 8.70165591,9.82597848 8.74937083,9.65766117 C9.02419244,9.62764152 9.25805524,10.3202362 9.51623164,10.15625 C9.77440803,9.99226379 10.4733664,9.29818212 10.5837159,9.1796875 C10.8012932,8.9460503 10.9988608,8.66317167 11.1955666,8.29427083 C11.3531131,7.99880929 11.6381821,7.22868463 11.6381821,7.22868463 L11.7686691,7.22868463 C12.1203241,7.22868463 12.4058378,6.97943247 12.4058378,6.67181222 L12.4058378,4.48606257 C12.4050619,4.17912102 12.1203241,3.92919017 11.7686691,3.92919017 L0.648192139,3.92919017 Z" id="Support-End" fill="#FFFFFF"></path>
                </g>
                <g id="Eyes" transform="translate(3.588502, 2.949582)" fill="#FFFFFF">
                    <ellipse id="Oval-19-Copy" cx="4.47019503" cy="0.804431346" rx="1" ry="1"></ellipse>
                    <ellipse id="Oval-19" cx="0.804635106" cy="0.804431346" rx="1" ry="1"></ellipse>
                </g>
            </g>
        </g>
    </g>
</svg>